<?xml version="1.0" standalone="no"?>
<!DOCTYPE svg PUBLIC "-//W3C//DTD SVG 20010904//EN"
 "http://www.w3.org/TR/2001/REC-SVG-20010904/DTD/svg10.dtd">
<svg version="1.0" xmlns="http://www.w3.org/2000/svg"
 width="1125.000000pt" height="1125.000000pt" viewBox="0 0 1125.000000 1125.000000"
 preserveAspectRatio="xMidYMid meet">

<g transform="translate(0.000000,1125.000000) scale(0.100000,-0.100000)"
fill="#690AFF" stroke="none">
<path d="M1560 11239 c-607 -69 -1134 -447 -1394 -1001 -81 -170 -134 -362
-155 -560 -15 -136 -15 -7970 0 -8106 23 -213 77 -401 168 -587 258 -525 738
-876 1321 -967 126 -19 8124 -19 8250 0 638 99 1154 514 1385 1112 36 91 67
206 93 335 14 72 16 475 19 4085 3 2879 1 4036 -7 4115 -22 220 -75 408 -169
600 -269 548 -782 907 -1393 974 -119 13 -8003 13 -8118 0z m3725 -2264 c17
-7 53 -23 80 -35 138 -60 287 -140 405 -218 82 -55 97 -65 123 -87 7 -6 22
-18 34 -26 83 -57 267 -236 359 -349 68 -83 164 -216 164 -227 0 -3 6 -14 14
-22 36 -42 196 -362 196 -394 0 -7 4 -17 9 -22 5 -6 21 -48 36 -95 15 -47 31
-94 35 -105 5 -11 20 -69 35 -130 14 -60 30 -126 35 -145 15 -54 40 -212 56
-355 30 -260 35 -446 28 -1005 l-7 -554 34 29 c52 45 145 154 189 221 22 32
44 64 48 70 23 27 154 310 185 399 63 180 122 400 146 550 27 164 35 195 46
195 13 0 162 -97 192 -126 113 -107 143 -138 188 -194 55 -68 116 -155 128
-180 4 -8 18 -33 30 -55 39 -69 65 -119 81 -155 8 -19 24 -56 35 -82 12 -26
21 -50 21 -53 0 -4 6 -21 14 -38 34 -76 79 -253 118 -467 16 -87 15 -622 0
-710 -44 -242 -85 -414 -112 -475 -5 -11 -19 -49 -30 -85 -25 -75 -32 -92
-113 -260 -33 -69 -72 -144 -88 -168 -16 -24 -29 -45 -29 -48 0 -4 -106 -168
-122 -189 -5 -5 -22 -28 -39 -50 -126 -164 -374 -411 -530 -528 -64 -48 -121
-87 -127 -87 -6 0 -12 -4 -14 -8 -14 -34 -356 -211 -543 -282 -33 -12 -69 -27
-80 -31 -24 -11 -112 -36 -175 -50 -25 -6 -54 -14 -65 -19 -31 -13 -237 -49
-360 -63 -145 -16 -450 -15 -600 2 -225 25 -541 103 -682 167 -17 8 -34 14
-38 14 -31 0 -465 227 -495 260 -3 3 -25 19 -50 35 -25 17 -50 35 -57 40 -6 6
-23 19 -37 30 -15 11 -32 25 -39 30 -6 6 -37 30 -67 55 -126 102 -321 310
-433 460 -166 224 -332 546 -405 785 -73 243 -97 358 -123 605 -13 120 -6 476
10 530 6 19 17 67 25 105 19 95 35 156 45 180 5 11 26 67 46 125 21 58 49 130
62 160 14 30 32 71 40 90 27 62 54 124 78 175 42 90 113 262 162 395 104 283
157 556 171 875 l7 150 30 -3 c16 -2 34 -7 40 -11 5 -5 24 -11 40 -15 17 -4
44 -14 60 -21 17 -7 53 -23 80 -35 66 -28 120 -57 173 -92 24 -15 46 -28 49
-28 12 0 141 -108 198 -165 80 -80 167 -192 197 -255 7 -14 15 -27 18 -30 12
-11 78 -169 98 -235 45 -150 54 -210 59 -387 3 -98 9 -178 12 -178 4 0 27 27
51 61 25 33 50 66 55 72 16 19 97 143 131 202 27 46 112 222 154 320 69 160
148 505 180 785 29 260 33 366 37 903 l5 579 26 -7 c15 -4 41 -13 57 -20z"/>
</g>
</svg>
