<?xml version="1.0" standalone="no"?>
<!DOCTYPE svg PUBLIC "-//W3C//DTD SVG 20010904//EN"
 "http://www.w3.org/TR/2001/REC-SVG-20010904/DTD/svg10.dtd">
<svg version="1.0" xmlns="http://www.w3.org/2000/svg"
 width="1125.000000pt" height="1125.000000pt" viewBox="100 50 1125.000000 1125.000000"
 preserveAspectRatio="xMidYMid meet">
 
<rect x="150" y="150" width="900" height="900" style="fill:#FFF" />

<g transform="translate(0.000000,1225.000000) scale(0.100000,-0.100000)"
fill="#690AFF" stroke="none">
<path d="M2600 11743 c-97 -8 -277 -45 -383 -79 -295 -95 -588 -286 -778 -507
-210 -244 -347 -526 -411 -848 l-23 -114 -3 -3995 c-2 -2822 0 -4029 8 -4110
21 -217 74 -407 170 -605 266 -547 789 -912 1399 -974 144 -15 7948 -15 8092
0 214 21 401 75 594 169 549 267 912 789 974 1399 15 144 15 7948 0 8092 -29
289 -124 555 -283 794 -266 399 -660 659 -1147 757 l-114 23 -4025 1 c-2214 0
-4045 -1 -4070 -3z m4450 -2558 l0 -315 148 0 c173 0 230 -12 349 -71 160 -80
273 -220 324 -401 18 -63 19 -109 19 -682 0 -338 3 -621 6 -630 3 -9 10 -16
16 -16 14 0 170 -94 263 -158 237 -163 466 -381 637 -607 52 -69 158 -223 158
-231 0 -2 11 -21 23 -42 103 -163 248 -511 287 -687 72 -320 85 -429 85 -695
0 -182 -14 -377 -36 -482 -109 -539 -310 -952 -662 -1360 l-50 -58 -1992 0
-1992 0 -59 72 c-33 39 -66 79 -74 87 -39 43 -150 199 -210 297 -205 332 -316
643 -387 1079 -25 157 -25 574 0 730 44 270 74 381 184 679 22 62 112 243 167
336 207 354 461 625 838 896 57 41 209 130 236 138 12 4 24 17 27 29 3 12 6
308 8 657 2 635 2 635 25 690 84 204 210 327 407 401 51 19 86 23 233 27 l172
4 0 314 0 314 425 0 425 0 0 -315z"/>
<path d="M6207 8013 c-4 -3 -7 -342 -7 -752 l0 -746 -103 -39 c-321 -124 -474
-206 -672 -365 -134 -107 -297 -287 -387 -428 -26 -41 -27 -43 -8 -53 10 -5
24 -10 29 -10 32 0 281 -123 386 -190 187 -120 380 -166 582 -140 143 19 238
55 364 136 123 79 274 152 410 198 140 47 381 86 528 86 89 0 279 -22 353 -41
24 -5 63 -15 87 -20 113 -23 354 -129 465 -203 30 -20 57 -36 61 -36 4 0 20
-9 36 -21 16 -11 34 -19 39 -17 10 3 -74 177 -124 258 -36 58 -80 124 -86 130
-3 3 -25 32 -49 64 -65 87 -222 240 -336 327 -159 120 -312 202 -565 299 -47
18 -104 41 -127 52 l-43 18 -2 748 -3 747 -411 3 c-226 1 -413 -1 -417 -5z"/>
<path d="M7235 4849 c-38 -4 -90 -13 -115 -20 -69 -18 -209 -79 -260 -113
-165 -112 -398 -211 -590 -251 -165 -34 -580 -37 -665 -5 -15 6 -37 10 -51 10
-39 0 -257 76 -357 124 -51 25 -128 68 -172 96 -92 59 -236 130 -263 130 -24
0 -32 -40 -32 -155 0 -244 55 -535 136 -722 8 -17 14 -34 14 -37 0 -13 90
-187 139 -268 l23 -38 1583 0 1584 0 34 58 c40 64 137 262 137 277 0 6 6 21
13 35 40 78 108 358 112 465 0 10 -31 18 -126 35 -154 27 -402 129 -548 224
-189 124 -400 179 -596 155z"/>
</g>
</svg>
