<?xml version="1.0" standalone="no"?>
<!DOCTYPE svg PUBLIC "-//W3C//DTD SVG 20010904//EN"
 "http://www.w3.org/TR/2001/REC-SVG-20010904/DTD/svg10.dtd">
<svg version="1.0" xmlns="http://www.w3.org/2000/svg"
 width="6563.000000pt" height="1125.000000pt" viewBox="100 50 6563.000000 1125.000000"
 preserveAspectRatio="xMidYMid meet">
 
<rect x="150" y="150" width="900" height="900" style="fill:#FFF" />

<g transform="translate(100.000000,1175.000000) scale(0.100000,-0.100000)"
fill="#690AFF" stroke="none">
<path d="M1560 11239 c-607 -69 -1134 -447 -1394 -1001 -81 -170 -134 -362
-155 -560 -15 -136 -15 -7970 0 -8106 23 -213 77 -401 168 -587 258 -525 738
-876 1321 -967 126 -19 8124 -19 8250 0 638 99 1154 514 1385 1112 36 91 67
206 93 335 14 72 16 475 19 4085 3 2879 1 4036 -7 4115 -22 220 -75 408 -169
600 -269 548 -782 907 -1393 974 -119 13 -8003 13 -8118 0z m3725 -2264 c17
-7 53 -23 80 -35 138 -60 287 -140 405 -218 82 -55 97 -65 123 -87 7 -6 22
-18 34 -26 83 -57 267 -236 359 -349 68 -83 164 -216 164 -227 0 -3 6 -14 14
-22 36 -42 196 -362 196 -394 0 -7 4 -17 9 -22 5 -6 21 -48 36 -95 15 -47 31
-94 35 -105 5 -11 20 -69 35 -130 14 -60 30 -126 35 -145 15 -54 40 -212 56
-355 30 -260 35 -446 28 -1005 l-7 -554 34 29 c52 45 145 154 189 221 22 32
44 64 48 70 23 27 154 310 185 399 63 180 122 400 146 550 27 164 35 195 46
195 13 0 162 -97 192 -126 113 -107 143 -138 188 -194 55 -68 116 -155 128
-180 4 -8 18 -33 30 -55 39 -69 65 -119 81 -155 8 -19 24 -56 35 -82 12 -26
21 -50 21 -53 0 -4 6 -21 14 -38 34 -76 79 -253 118 -467 16 -87 15 -622 0
-710 -44 -242 -85 -414 -112 -475 -5 -11 -19 -49 -30 -85 -25 -75 -32 -92
-113 -260 -33 -69 -72 -144 -88 -168 -16 -24 -29 -45 -29 -48 0 -4 -106 -168
-122 -189 -5 -5 -22 -28 -39 -50 -126 -164 -374 -411 -530 -528 -64 -48 -121
-87 -127 -87 -6 0 -12 -4 -14 -8 -14 -34 -356 -211 -543 -282 -33 -12 -69 -27
-80 -31 -24 -11 -112 -36 -175 -50 -25 -6 -54 -14 -65 -19 -31 -13 -237 -49
-360 -63 -145 -16 -450 -15 -600 2 -225 25 -541 103 -682 167 -17 8 -34 14
-38 14 -31 0 -465 227 -495 260 -3 3 -25 19 -50 35 -25 17 -50 35 -57 40 -6 6
-23 19 -37 30 -15 11 -32 25 -39 30 -6 6 -37 30 -67 55 -126 102 -321 310
-433 460 -166 224 -332 546 -405 785 -73 243 -97 358 -123 605 -13 120 -6 476
10 530 6 19 17 67 25 105 19 95 35 156 45 180 5 11 26 67 46 125 21 58 49 130
62 160 14 30 32 71 40 90 27 62 54 124 78 175 42 90 113 262 162 395 104 283
157 556 171 875 l7 150 30 -3 c16 -2 34 -7 40 -11 5 -5 24 -11 40 -15 17 -4
44 -14 60 -21 17 -7 53 -23 80 -35 66 -28 120 -57 173 -92 24 -15 46 -28 49
-28 12 0 141 -108 198 -165 80 -80 167 -192 197 -255 7 -14 15 -27 18 -30 12
-11 78 -169 98 -235 45 -150 54 -210 59 -387 3 -98 9 -178 12 -178 4 0 27 27
51 61 25 33 50 66 55 72 16 19 97 143 131 202 27 46 112 222 154 320 69 160
148 505 180 785 29 260 33 366 37 903 l5 579 26 -7 c15 -4 41 -13 57 -20z"/>
</g>

<g transform="translate(0.000000,1225.000000) scale(0.100000,-0.100000)"
fill="#FFFFFF" stroke="none">
<path d="M39883 9910 c-255 -36 -470 -173 -589 -375 -66 -113 -100 -292 -83
-439 19 -176 74 -291 199 -417 164 -165 348 -238 605 -239 124 0 206 13 313
49 118 41 185 84 288 186 79 78 97 103 137 185 51 108 65 160 74 268 27 354
-212 670 -576 763 -88 22 -277 32 -368 19z"/>
<path d="M16000 6470 l0 -2960 685 0 685 0 0 306 0 305 60 -80 c122 -162 322
-324 518 -421 264 -130 508 -177 862 -167 153 5 221 11 316 31 490 103 899
384 1180 811 211 320 338 688 385 1115 16 148 17 532 0 680 -57 516 -234 951
-531 1304 -253 301 -645 531 -1030 605 -504 96 -993 7 -1372 -250 -108 -74
-288 -248 -344 -333 l-39 -59 -3 1036 -2 1037 -685 0 -685 0 0 -2960z m2535
354 c335 -63 612 -313 719 -650 34 -108 45 -169 55 -306 23 -316 -48 -619
-193 -822 -50 -70 -180 -198 -246 -243 -73 -49 -183 -101 -277 -130 -81 -24
-102 -27 -258 -27 -200 0 -272 15 -422 89 -298 147 -491 428 -543 790 -13 93
-13 334 1 430 22 159 74 313 151 443 42 72 215 248 290 295 218 138 455 181
723 131z"/>
<path d="M36300 8515 l0 -545 -270 0 -270 0 0 -565 0 -565 269 0 270 0 4
-1027 c3 -1002 4 -1031 25 -1148 40 -223 79 -345 159 -497 150 -284 428 -487
803 -587 218 -58 280 -63 803 -68 l477 -5 0 581 0 581 -287 0 c-370 0 -436 13
-526 98 -20 20 -47 61 -60 92 l-22 55 -3 963 -2 962 445 0 445 0 0 565 0 565
-445 0 -445 0 0 545 0 545 -685 0 -685 0 0 -545z"/>
<path d="M23264 8029 c-414 -31 -798 -155 -1119 -359 -502 -319 -844 -845
-950 -1463 -43 -252 -46 -652 -6 -897 133 -824 621 -1428 1381 -1712 298 -111
589 -154 970 -145 395 10 700 79 1013 230 243 117 396 221 570 387 476 455
706 1089 666 1835 -33 611 -255 1118 -660 1510 -463 448 -1138 670 -1865 614z
m451 -1204 c88 -24 230 -96 310 -158 199 -153 330 -408 366 -715 15 -122 6
-421 -15 -525 -47 -232 -135 -398 -290 -545 -191 -180 -412 -262 -671 -248
-136 7 -233 32 -350 90 -259 129 -428 373 -492 709 -13 71 -17 144 -17 317 0
194 3 239 22 328 51 235 125 377 271 522 134 132 278 208 453 239 80 15 341 6
413 -14z"/>
<path d="M28355 8029 c-580 -44 -1103 -273 -1467 -643 -294 -299 -495 -677
-581 -1096 -74 -357 -69 -811 12 -1163 128 -547 439 -1002 890 -1299 276 -183
605 -302 986 -360 138 -20 607 -17 756 5 573 86 1083 355 1409 745 276 328
434 686 506 1142 26 161 26 593 1 765 -97 659 -426 1191 -948 1535 -118 78
-341 187 -478 235 -341 117 -707 162 -1086 134z m495 -1218 c184 -59 355 -191
469 -361 129 -193 191 -466 177 -780 -18 -420 -160 -705 -443 -893 -290 -192
-696 -194 -977 -6 -86 57 -216 192 -264 272 -179 299 -220 800 -97 1187 76
237 233 424 450 532 134 67 245 89 435 84 140 -4 164 -7 250 -35z"/>
<path d="M33095 8030 c-691 -62 -1198 -347 -1432 -806 -112 -218 -151 -426
-132 -690 15 -202 72 -385 162 -519 93 -138 287 -310 451 -400 160 -87 511
-204 875 -291 311 -75 635 -175 749 -233 74 -37 138 -100 163 -159 29 -67 28
-172 -1 -241 -25 -56 -106 -138 -169 -171 -145 -73 -419 -85 -607 -26 -154 49
-297 160 -361 281 -28 54 -38 84 -57 168 l-6 27 -676 0 -676 0 7 -52 c75 -577
440 -1028 1038 -1282 297 -126 623 -186 1017 -186 345 0 625 46 883 146 508
196 829 553 903 1004 19 115 13 377 -11 485 -68 305 -232 537 -514 728 -192
130 -549 257 -1132 402 -585 147 -727 225 -759 418 -40 248 169 399 530 384
207 -9 340 -59 455 -173 74 -73 140 -193 151 -276 l7 -48 634 0 634 0 -6 48
c-55 394 -206 712 -461 966 -270 270 -600 422 -1049 481 -145 19 -473 27 -610
15z"/>
<path d="M43515 8029 c-628 -48 -1203 -326 -1562 -753 -356 -424 -533 -935
-533 -1536 0 -650 209 -1205 610 -1624 172 -178 348 -306 585 -422 232 -113
481 -189 745 -226 129 -18 604 -18 725 0 457 69 816 214 1140 461 346 264 618
672 744 1116 61 217 86 420 86 705 0 251 -16 399 -66 608 -81 345 -241 658
-472 928 -455 531 -1193 805 -2002 743z m475 -1208 c223 -66 433 -237 539
-440 95 -183 135 -370 134 -636 0 -345 -66 -568 -228 -773 -116 -146 -296
-264 -480 -314 -116 -31 -346 -31 -460 1 -366 99 -596 386 -666 826 -19 121
-16 428 5 550 61 338 224 583 476 714 157 82 247 101 455 97 117 -3 166 -8
225 -25z"/>
<path d="M39330 5740 l0 -2230 685 0 685 0 0 2230 0 2230 -685 0 -685 0 0
-2230z"/>
</g>
</svg>
