<?xml version="1.0" standalone="no"?>
<!DOCTYPE svg PUBLIC "-//W3C//DTD SVG 20010904//EN"
 "http://www.w3.org/TR/2001/REC-SVG-20010904/DTD/svg10.dtd">
<svg version="1.0" xmlns="http://www.w3.org/2000/svg"
 width="6563.000000pt" height="1125.000000pt" viewBox="100 50 6563.000000 1125.000000"
 preserveAspectRatio="xMidYMid meet">
 
<rect x="150" y="150" width="900" height="900" style="fill:#FFF" />

<g transform="translate(0.000000,1225.000000) scale(0.100000,-0.100000)"
fill="#690AFF" stroke="none">
<path d="M2600 11743 c-97 -8 -277 -45 -383 -79 -295 -95 -588 -286 -778 -507
-210 -244 -347 -526 -411 -848 l-23 -114 -3 -3995 c-2 -2822 0 -4029 8 -4110
21 -217 74 -407 170 -605 266 -547 789 -912 1399 -974 144 -15 7948 -15 8092
0 214 21 401 75 594 169 549 267 912 789 974 1399 15 144 15 7948 0 8092 -29
289 -124 555 -283 794 -266 399 -660 659 -1147 757 l-114 23 -4025 1 c-2214 0
-4045 -1 -4070 -3z m4450 -2558 l0 -315 148 0 c173 0 230 -12 349 -71 160 -80
273 -220 324 -401 18 -63 19 -109 19 -682 0 -338 3 -621 6 -630 3 -9 10 -16
16 -16 14 0 170 -94 263 -158 237 -163 466 -381 637 -607 52 -69 158 -223 158
-231 0 -2 11 -21 23 -42 103 -163 248 -511 287 -687 72 -320 85 -429 85 -695
0 -182 -14 -377 -36 -482 -109 -539 -310 -952 -662 -1360 l-50 -58 -1992 0
-1992 0 -59 72 c-33 39 -66 79 -74 87 -39 43 -150 199 -210 297 -205 332 -316
643 -387 1079 -25 157 -25 574 0 730 44 270 74 381 184 679 22 62 112 243 167
336 207 354 461 625 838 896 57 41 209 130 236 138 12 4 24 17 27 29 3 12 6
308 8 657 2 635 2 635 25 690 84 204 210 327 407 401 51 19 86 23 233 27 l172
4 0 314 0 314 425 0 425 0 0 -315z"/>
<path d="M6207 8013 c-4 -3 -7 -342 -7 -752 l0 -746 -103 -39 c-321 -124 -474
-206 -672 -365 -134 -107 -297 -287 -387 -428 -26 -41 -27 -43 -8 -53 10 -5
24 -10 29 -10 32 0 281 -123 386 -190 187 -120 380 -166 582 -140 143 19 238
55 364 136 123 79 274 152 410 198 140 47 381 86 528 86 89 0 279 -22 353 -41
24 -5 63 -15 87 -20 113 -23 354 -129 465 -203 30 -20 57 -36 61 -36 4 0 20
-9 36 -21 16 -11 34 -19 39 -17 10 3 -74 177 -124 258 -36 58 -80 124 -86 130
-3 3 -25 32 -49 64 -65 87 -222 240 -336 327 -159 120 -312 202 -565 299 -47
18 -104 41 -127 52 l-43 18 -2 748 -3 747 -411 3 c-226 1 -413 -1 -417 -5z"/>
<path d="M7235 4849 c-38 -4 -90 -13 -115 -20 -69 -18 -209 -79 -260 -113
-165 -112 -398 -211 -590 -251 -165 -34 -580 -37 -665 -5 -15 6 -37 10 -51 10
-39 0 -257 76 -357 124 -51 25 -128 68 -172 96 -92 59 -236 130 -263 130 -24
0 -32 -40 -32 -155 0 -244 55 -535 136 -722 8 -17 14 -34 14 -37 0 -13 90
-187 139 -268 l23 -38 1583 0 1584 0 34 58 c40 64 137 262 137 277 0 6 6 21
13 35 40 78 108 358 112 465 0 10 -31 18 -126 35 -154 27 -402 129 -548 224
-189 124 -400 179 -596 155z"/>
</g>

<g transform="translate(0.000000,1225.000000) scale(0.100000,-0.100000)"
fill="#FFFFFF" stroke="none">
<path d="M39883 9910 c-255 -36 -470 -173 -589 -375 -66 -113 -100 -292 -83
-439 19 -176 74 -291 199 -417 164 -165 348 -238 605 -239 124 0 206 13 313
49 118 41 185 84 288 186 79 78 97 103 137 185 51 108 65 160 74 268 27 354
-212 670 -576 763 -88 22 -277 32 -368 19z"/>
<path d="M16000 6470 l0 -2960 685 0 685 0 0 306 0 305 60 -80 c122 -162 322
-324 518 -421 264 -130 508 -177 862 -167 153 5 221 11 316 31 490 103 899
384 1180 811 211 320 338 688 385 1115 16 148 17 532 0 680 -57 516 -234 951
-531 1304 -253 301 -645 531 -1030 605 -504 96 -993 7 -1372 -250 -108 -74
-288 -248 -344 -333 l-39 -59 -3 1036 -2 1037 -685 0 -685 0 0 -2960z m2535
354 c335 -63 612 -313 719 -650 34 -108 45 -169 55 -306 23 -316 -48 -619
-193 -822 -50 -70 -180 -198 -246 -243 -73 -49 -183 -101 -277 -130 -81 -24
-102 -27 -258 -27 -200 0 -272 15 -422 89 -298 147 -491 428 -543 790 -13 93
-13 334 1 430 22 159 74 313 151 443 42 72 215 248 290 295 218 138 455 181
723 131z"/>
<path d="M36300 8515 l0 -545 -270 0 -270 0 0 -565 0 -565 269 0 270 0 4
-1027 c3 -1002 4 -1031 25 -1148 40 -223 79 -345 159 -497 150 -284 428 -487
803 -587 218 -58 280 -63 803 -68 l477 -5 0 581 0 581 -287 0 c-370 0 -436 13
-526 98 -20 20 -47 61 -60 92 l-22 55 -3 963 -2 962 445 0 445 0 0 565 0 565
-445 0 -445 0 0 545 0 545 -685 0 -685 0 0 -545z"/>
<path d="M23264 8029 c-414 -31 -798 -155 -1119 -359 -502 -319 -844 -845
-950 -1463 -43 -252 -46 -652 -6 -897 133 -824 621 -1428 1381 -1712 298 -111
589 -154 970 -145 395 10 700 79 1013 230 243 117 396 221 570 387 476 455
706 1089 666 1835 -33 611 -255 1118 -660 1510 -463 448 -1138 670 -1865 614z
m451 -1204 c88 -24 230 -96 310 -158 199 -153 330 -408 366 -715 15 -122 6
-421 -15 -525 -47 -232 -135 -398 -290 -545 -191 -180 -412 -262 -671 -248
-136 7 -233 32 -350 90 -259 129 -428 373 -492 709 -13 71 -17 144 -17 317 0
194 3 239 22 328 51 235 125 377 271 522 134 132 278 208 453 239 80 15 341 6
413 -14z"/>
<path d="M28355 8029 c-580 -44 -1103 -273 -1467 -643 -294 -299 -495 -677
-581 -1096 -74 -357 -69 -811 12 -1163 128 -547 439 -1002 890 -1299 276 -183
605 -302 986 -360 138 -20 607 -17 756 5 573 86 1083 355 1409 745 276 328
434 686 506 1142 26 161 26 593 1 765 -97 659 -426 1191 -948 1535 -118 78
-341 187 -478 235 -341 117 -707 162 -1086 134z m495 -1218 c184 -59 355 -191
469 -361 129 -193 191 -466 177 -780 -18 -420 -160 -705 -443 -893 -290 -192
-696 -194 -977 -6 -86 57 -216 192 -264 272 -179 299 -220 800 -97 1187 76
237 233 424 450 532 134 67 245 89 435 84 140 -4 164 -7 250 -35z"/>
<path d="M33095 8030 c-691 -62 -1198 -347 -1432 -806 -112 -218 -151 -426
-132 -690 15 -202 72 -385 162 -519 93 -138 287 -310 451 -400 160 -87 511
-204 875 -291 311 -75 635 -175 749 -233 74 -37 138 -100 163 -159 29 -67 28
-172 -1 -241 -25 -56 -106 -138 -169 -171 -145 -73 -419 -85 -607 -26 -154 49
-297 160 -361 281 -28 54 -38 84 -57 168 l-6 27 -676 0 -676 0 7 -52 c75 -577
440 -1028 1038 -1282 297 -126 623 -186 1017 -186 345 0 625 46 883 146 508
196 829 553 903 1004 19 115 13 377 -11 485 -68 305 -232 537 -514 728 -192
130 -549 257 -1132 402 -585 147 -727 225 -759 418 -40 248 169 399 530 384
207 -9 340 -59 455 -173 74 -73 140 -193 151 -276 l7 -48 634 0 634 0 -6 48
c-55 394 -206 712 -461 966 -270 270 -600 422 -1049 481 -145 19 -473 27 -610
15z"/>
<path d="M43515 8029 c-628 -48 -1203 -326 -1562 -753 -356 -424 -533 -935
-533 -1536 0 -650 209 -1205 610 -1624 172 -178 348 -306 585 -422 232 -113
481 -189 745 -226 129 -18 604 -18 725 0 457 69 816 214 1140 461 346 264 618
672 744 1116 61 217 86 420 86 705 0 251 -16 399 -66 608 -81 345 -241 658
-472 928 -455 531 -1193 805 -2002 743z m475 -1208 c223 -66 433 -237 539
-440 95 -183 135 -370 134 -636 0 -345 -66 -568 -228 -773 -116 -146 -296
-264 -480 -314 -116 -31 -346 -31 -460 1 -366 99 -596 386 -666 826 -19 121
-16 428 5 550 61 338 224 583 476 714 157 82 247 101 455 97 117 -3 166 -8
225 -25z"/>
<path d="M39330 5740 l0 -2230 685 0 685 0 0 2230 0 2230 -685 0 -685 0 0
-2230z"/>
</g>
</svg>
